<svg width="385" height="68" viewBox="0 0 385 68" fill="none" xmlns="http://www.w3.org/2000/svg">
<path d="M249.088 18.451V24.0665H248.286V8.02216H252.498C253.701 8.22271 254.704 8.62382 255.506 9.6266C256.509 10.6294 257.111 11.8327 257.111 13.2366C257.111 14.6404 256.509 15.8438 255.506 16.8465C254.503 17.8493 253.3 18.451 251.896 18.451H249.088V18.451ZM249.088 9.02493V17.6487H251.896C253.099 17.6487 254.102 17.2477 254.904 16.4454C255.707 15.6432 256.108 14.6405 256.108 13.4371C256.108 12.2338 255.707 11.231 254.904 10.4288C254.102 9.6266 253.099 9.22548 251.896 9.22548H249.088V9.02493Z" fill="#00AC9C"/>
<path d="M264.33 18.451H264.13H261.322V24.0665H260.52V8.02216H264.731C265.935 8.22271 266.937 8.62382 267.739 9.6266C268.742 10.6294 269.344 11.8327 269.344 13.2366C269.344 14.6404 268.742 15.8438 267.739 16.8465C266.937 17.6488 266.135 18.0499 265.333 18.2504L268.943 23.8659H267.739L264.33 18.451ZM261.322 9.02493V17.6487H264.13C265.333 17.6487 266.336 17.2477 267.138 16.4454C267.94 15.6432 268.341 14.6405 268.341 13.4371C268.341 12.2338 267.94 11.231 267.138 10.4288C266.336 9.6266 265.333 9.22548 264.13 9.22548H261.322V9.02493Z" fill="#00AC9C"/>
<path d="M286.391 10.2282C287.996 11.8327 288.798 13.8382 288.798 16.0443C288.798 18.2504 287.996 20.256 286.391 21.8604C284.787 23.4648 282.781 24.267 280.575 24.267C278.369 24.267 276.364 23.4648 274.759 21.8604C273.155 20.256 272.353 18.2504 272.353 16.0443C272.353 13.8382 273.155 11.8327 274.759 10.2282C276.364 8.6238 278.369 7.82159 280.575 7.82159C282.781 7.82159 284.787 8.6238 286.391 10.2282ZM280.575 8.82437C278.57 8.82437 276.765 9.62658 275.361 11.0305C273.957 12.4343 273.155 14.2393 273.155 16.2449C273.155 18.2504 273.957 20.0554 275.361 21.4593C276.765 22.8632 278.57 23.6654 280.575 23.6654C282.581 23.6654 284.386 22.8632 285.79 21.4593C287.194 20.0554 287.996 18.2504 287.996 16.2449C287.996 14.2393 287.194 12.4343 285.79 11.0305C284.185 9.42602 282.581 8.82437 280.575 8.82437Z" fill="#00AC9C"/>
<path d="M296.82 15.2421C295.617 14.841 294.814 14.4399 294.213 13.6377C293.611 13.036 293.21 12.2338 293.21 11.231C293.21 10.2282 293.611 9.62658 294.213 8.82437C294.814 8.2227 295.617 7.82159 296.619 7.82159C297.622 7.82159 298.424 8.2227 299.026 8.82437C299.427 9.22547 299.628 9.62658 299.828 10.0277L299.026 10.4288C298.825 10.0277 298.625 9.82714 298.424 9.62658C298.023 9.22548 297.422 8.82437 296.619 8.82437C296.018 8.82437 295.416 9.02492 294.814 9.62658C294.413 10.0277 294.012 10.6294 294.012 11.4316C294.012 12.0332 294.213 12.6349 294.814 13.2366C295.215 13.6377 295.817 14.0388 296.619 14.4399C297.823 14.841 299.026 15.4427 299.828 16.4454C300.831 17.4482 301.232 18.451 301.232 19.8548C301.232 21.2587 300.831 22.2615 299.828 23.2643C298.825 24.267 297.823 24.6681 296.419 24.6681C295.215 24.6681 294.012 24.267 293.009 23.2643C292.207 22.462 291.806 21.6598 291.605 20.657L292.408 20.2559C292.408 21.0582 292.809 21.8604 293.611 22.4621C294.413 23.2643 295.215 23.6654 296.419 23.6654C297.422 23.6654 298.424 23.2643 299.227 22.4621C300.029 21.6598 300.43 20.8576 300.43 19.6543C300.43 18.6515 300.029 17.6487 299.227 16.8465C298.625 16.2449 297.823 15.6432 296.82 15.2421Z" fill="#00AC9C"/>
<path d="M312.263 18.0499H306.647L304.441 24.0665H303.438L309.455 7.82159L315.472 24.0665H314.469L312.263 18.0499ZM311.862 17.0471L309.455 10.4288L307.048 17.0471H311.862Z" fill="#00AC9C"/>
<path d="M343.349 21.4593L343.95 22.061C342.346 23.4648 340.541 24.267 338.535 24.267C336.329 24.267 334.324 23.4648 332.719 21.8604C331.115 20.256 330.312 18.2504 330.312 16.0443C330.312 13.8382 331.115 11.8327 332.719 10.2282C334.324 8.6238 336.329 7.82159 338.535 7.82159C340.541 7.82159 342.546 8.62381 343.95 10.0277L343.349 10.6294C341.945 9.42603 340.34 8.82437 338.535 8.82437C336.53 8.82437 334.925 9.62658 333.321 11.0305C331.917 12.4343 331.115 14.2393 331.115 16.2449C331.115 18.2504 331.917 20.0554 333.321 21.4593C334.725 22.8632 336.53 23.6654 338.535 23.6654C340.34 23.2643 341.945 22.6626 343.349 21.4593Z" fill="#00AC9C"/>
<path d="M361.599 10.2282C363.204 11.8327 364.006 13.8382 364.006 16.0443C364.006 18.2504 363.204 20.256 361.599 21.8604C359.995 23.4648 357.989 24.267 355.783 24.267C353.577 24.267 351.572 23.4648 349.967 21.8604C348.363 20.256 347.561 18.2504 347.561 16.0443C347.561 13.8382 348.363 11.8327 349.967 10.2282C351.572 8.6238 353.577 7.82159 355.783 7.82159C357.989 7.82159 359.995 8.6238 361.599 10.2282ZM355.783 8.82437C353.778 8.82437 351.973 9.62658 350.569 11.0305C349.165 12.4343 348.363 14.2393 348.363 16.2449C348.363 18.2504 349.165 20.0554 350.569 21.4593C351.973 22.8632 353.778 23.6654 355.783 23.6654C357.789 23.6654 359.594 22.8632 360.998 21.4593C362.402 20.0554 363.204 18.2504 363.204 16.2449C363.204 14.2393 362.402 12.4343 360.998 11.0305C359.594 9.42602 357.789 8.82437 355.783 8.82437Z" fill="#00AC9C"/>
<path d="M369.02 8.02216L375.036 18.451L381.053 8.02216H382.056V8.22271V24.0665H381.053V9.82715L375.036 20.256L369.02 9.82715V24.0665H368.017V8.22271V8.02216H369.02Z" fill="#00AC9C"/>
<path d="M69.9934 27.2754C70.194 29.0804 70.194 31.0859 70.3945 33.292C70.3945 35.2975 70.5951 37.5036 70.3945 39.7097C70.3945 41.9158 70.194 43.9214 70.194 46.1275C69.9934 48.3336 69.7929 50.1386 69.5923 52.1441C69.3917 53.3474 69.1912 54.7513 68.7901 56.1552C68.389 57.5591 67.9879 58.7624 67.1857 59.9657C66.584 61.169 65.7818 62.1718 64.779 63.1746C63.7762 64.1774 62.5729 64.9796 61.169 65.3807C58.7624 66.1829 56.3557 66.1829 53.7485 65.5812C51.1413 64.9796 48.7347 63.5757 46.7291 61.7707C44.7236 59.9657 42.718 57.7596 41.1136 55.353C39.5092 52.9463 37.9047 50.3391 36.7014 47.7319C35.4981 45.1247 34.2948 42.3169 33.292 39.5092C32.2892 36.7014 31.487 34.0942 30.8853 31.487C29.4815 27.2754 28.4787 23.0637 27.4759 18.6515C26.4732 14.2393 25.8715 9.82715 25.4704 5.21441C22.6626 9.42604 20.0554 13.8382 17.4482 18.451C14.841 22.8632 12.4344 27.4759 10.4288 32.0887C8.22272 36.7014 6.41773 41.5147 4.8133 46.328C3.20887 51.1413 2.2061 55.9546 1.40388 60.9685C1.40388 61.7707 1.20333 62.1718 0.802217 62.1718C0.401108 62.1718 0 61.7707 0 60.9685C0.601663 55.7541 1.60443 50.3391 3.40942 45.1247C5.01385 39.9103 7.0194 34.6959 9.42605 29.682C11.8327 24.6682 14.4399 19.6543 17.2477 14.6404C20.0554 9.82715 22.8632 5.01386 25.6709 0.401118C26.072 9.17466e-06 26.4732 0 27.2754 0C28.0776 0 28.4787 0.401108 28.4787 1.00277C28.4787 1.80499 28.4787 2.60721 28.4787 3.40943C28.4787 4.21165 28.4787 5.01386 28.6792 5.81607C29.2809 11.4316 30.2837 16.8465 31.6876 22.2615C32.8909 27.6765 34.6959 33.0914 36.902 38.7069C37.9047 41.5147 39.1081 44.3225 40.5119 46.9297C41.9158 49.5369 43.5203 52.1441 45.1247 54.5507C45.7264 55.353 46.5286 56.3557 47.3308 57.158C48.133 58.1607 49.1358 58.9629 50.1385 59.7651C51.1413 60.5674 52.1441 61.169 53.3474 61.7707C54.5507 62.3723 55.5535 62.7735 56.7568 62.974C58.7624 63.1746 60.3668 62.7735 61.5701 61.9712C62.7735 61.169 63.7762 59.9657 64.5784 58.5618C65.3807 57.3585 65.9823 55.7541 66.3834 54.1496C66.7845 52.3447 67.1856 50.7402 67.3862 48.9352C67.5868 47.1302 67.7873 45.5258 67.9879 43.9214C67.9879 42.3169 67.9879 40.9131 67.9879 39.5092C67.9879 33.8937 67.7873 28.6792 67.1857 23.6654C66.584 18.6515 65.7818 13.6377 64.779 8.62384C64.5784 8.02217 64.9796 7.4205 65.5812 7.21995C66.1829 7.01939 66.584 7.21995 66.7845 8.02217C67.7873 11.0305 68.5895 14.2393 68.9906 17.6488C69.1912 21.0582 69.5923 24.2671 69.9934 27.2754Z" fill="white"/>
<path d="M98.472 43.7208C98.6725 43.9213 98.6725 44.3225 98.472 44.523C98.2714 44.7236 98.0709 45.1247 97.8703 45.3252C97.4692 45.5258 97.2686 45.7263 96.8675 45.7263C96.4664 45.9269 96.2659 45.7263 96.0653 45.5258C95.0626 44.7236 94.0598 44.3225 92.6559 43.9213C91.252 43.7208 89.8481 43.7208 88.0432 44.1219C86.2382 44.523 84.6337 45.3252 83.0293 46.328C81.4249 47.3308 80.2215 48.5341 79.0182 49.7374C78.0155 50.9407 77.2132 51.9435 76.8121 52.9463C76.411 53.9491 76.6116 54.5507 77.2132 54.7513C78.216 55.1524 79.2188 55.1524 80.6227 54.9518C81.826 54.7513 83.2299 54.5507 84.4332 53.9491C85.6365 53.5479 86.8398 52.9463 87.8426 52.5452C88.8454 51.9435 89.447 51.5424 89.8481 50.9407C90.6504 49.938 91.4526 49.5369 92.0542 49.5369C92.6559 49.5369 93.057 49.7374 93.2576 50.1385C93.4581 51.1413 93.4581 51.9435 93.6587 52.9463C93.6587 53.9491 93.8592 54.7513 93.8592 55.3529C93.8592 55.754 93.6587 56.1552 93.057 56.5563C92.4554 56.9574 92.0542 56.9574 91.4526 56.3557C91.0515 55.9546 90.8509 55.5535 90.6504 54.9518C90.4498 54.3502 90.4498 53.949 90.4498 53.7485C90.0487 54.1496 89.2465 54.5507 88.2437 55.1524C87.2409 55.7541 86.0376 56.1551 84.6337 56.3557C83.2299 56.7568 81.826 56.9574 80.4221 57.3585C79.0182 57.559 77.8149 57.559 76.6116 57.559C75.6088 57.3585 74.8066 57.1579 74.2049 56.7568C73.6033 56.3557 73.2021 55.754 73.2021 54.9518C73.2021 53.7485 73.8038 52.3446 74.606 50.9407C75.4082 49.5369 76.6116 48.133 77.8149 46.7291C79.2188 45.3252 80.6227 44.1219 82.4276 43.1191C84.2326 42.1164 86.0376 41.3141 88.0432 40.913C90.4498 40.5119 92.2548 40.3114 93.8592 40.7125C95.8648 41.1136 97.2686 42.1163 98.472 43.7208Z" fill="white"/>
<path d="M189.925 27.0748C190.326 27.0748 190.526 27.2754 190.526 27.8771C190.526 28.2782 190.326 28.4787 189.925 28.4787C179.897 29.0804 169.869 29.8826 160.042 30.8854C150.215 31.8881 140.388 32.8909 130.561 33.8937C126.951 34.2948 123.541 34.4953 120.332 34.8964C117.124 35.2976 113.915 35.4981 110.104 35.8992C109.904 36.5009 109.703 37.3031 109.502 37.9048C109.302 38.5064 109.101 39.3087 108.7 40.1109C108.5 40.9131 108.099 41.9158 107.698 42.9186C107.296 43.9214 106.895 45.3253 106.494 46.9297C106.294 47.9325 105.893 49.3363 105.491 50.7402C105.09 52.1441 104.89 53.548 104.689 54.9519C104.689 56.3557 104.689 57.5591 105.09 58.5618C105.491 59.5646 106.294 60.3668 107.296 60.5674C107.898 60.7679 108.5 60.7679 109.302 60.5674C110.104 60.3668 110.706 60.3668 111.508 59.9657C112.31 59.7652 113.112 59.3641 113.915 58.963C114.717 58.5618 115.319 58.1607 115.92 57.9602C118.527 56.3557 121.335 54.3502 124.143 52.1441C126.951 49.938 129.558 47.9325 131.965 45.9269C132.566 45.5258 132.967 45.7264 132.967 46.1275C132.967 46.5286 132.767 46.9297 132.566 47.3308C131.965 47.9325 131.162 48.7347 130.16 49.7374C129.157 50.7402 128.355 51.5425 127.352 52.5452C126.349 53.548 125.346 54.5508 124.344 55.353C123.341 56.1552 122.338 56.9574 121.536 57.3585C120.734 57.9602 119.53 58.7624 118.126 59.7652C116.722 60.7679 115.118 61.5702 113.514 62.3724C111.909 63.1746 110.305 63.5757 108.5 63.7762C106.895 63.9768 105.491 63.5757 104.288 62.7735C103.285 61.9713 102.684 60.9685 102.283 59.5646C101.881 58.3613 101.681 56.9574 101.881 55.353C101.881 53.9491 102.082 52.3447 102.483 50.9408C102.684 49.5369 103.085 48.133 103.486 46.9297C103.887 45.5258 104.288 44.122 104.489 43.1192C104.89 42.1164 105.09 41.1136 105.491 40.3114C105.893 39.5092 106.093 38.707 106.294 38.1053C106.494 37.3031 106.695 36.7014 107.096 35.8992C104.489 36.0998 102.082 36.3003 99.8759 36.5009C97.8704 36.7014 95.8648 36.7014 94.0598 36.7014C92.2548 36.7014 90.4499 36.7014 88.8454 36.7014C87.0404 36.7014 85.2354 36.5009 83.2299 36.3003C82.2271 36.3003 81.6255 35.8992 81.826 35.4981C81.826 35.097 82.4277 34.8964 83.2299 34.8964C85.2354 34.8964 87.241 34.8964 89.2465 34.8964C91.0515 34.8964 93.0571 34.6959 94.862 34.6959C96.8676 34.4953 98.6726 34.4953 100.879 34.2948C102.884 34.0942 105.291 33.8937 107.698 33.6931C108.099 32.4898 108.299 31.487 108.7 30.4843C108.901 29.4815 109.302 28.6793 109.703 27.8771C109.703 27.4759 110.104 27.0748 110.305 26.6737C110.706 26.2726 111.107 26.0721 111.508 26.0721C111.909 25.8715 112.31 25.8715 112.511 26.0721C112.711 26.2726 112.912 26.4732 112.912 26.8743C112.711 27.8771 112.511 28.6793 112.11 29.682C111.709 30.6848 111.307 31.8881 110.706 33.292C114.717 32.8909 118.327 32.6903 121.536 32.2892C124.745 32.0887 128.355 31.6876 131.965 31.2865C141.792 30.2837 151.418 29.2809 161.045 28.0776C170.471 27.6765 180.298 27.0748 189.925 27.0748Z" fill="white"/>
<path d="M178.293 58.1607C178.493 58.5618 178.493 58.9629 178.293 59.1635C178.092 59.364 177.691 59.5646 177.089 59.7651C176.488 59.7651 175.886 59.7651 175.284 59.5646C174.683 59.364 174.081 58.9629 173.68 58.3612C172.878 57.3585 171.875 55.9546 170.872 54.5507C169.869 53.1468 168.466 51.9435 166.861 50.7402C165.257 49.5368 163.251 48.9352 160.845 48.3335C158.438 47.9324 155.63 48.133 152.221 48.9352C150.817 49.3363 149.212 49.938 147.407 50.7402C145.602 51.5424 143.998 52.5452 142.193 53.5479C140.388 54.5507 138.784 55.754 136.979 56.9574C135.374 58.1607 133.77 59.1635 132.366 60.3668C131.564 60.9684 130.962 60.9684 130.561 60.3668C130.16 59.7651 129.959 59.1635 130.16 58.5618C130.36 57.7596 130.561 56.1551 130.761 53.7485C131.162 51.3418 131.363 48.7346 131.965 45.7263C132.366 42.718 132.967 39.5092 133.369 36.0997C133.77 32.6903 134.371 29.4814 134.772 26.2726C135.174 23.2643 135.575 20.4565 135.976 18.0499C136.377 15.6432 136.577 14.0388 136.778 13.036C136.778 12.6349 137.179 12.2338 137.58 11.8327C137.981 11.4316 138.382 11.231 138.984 11.0305C139.385 10.8299 139.786 10.8299 140.187 11.0305C140.589 11.231 140.589 11.4316 140.589 11.8327C140.589 12.4343 140.388 14.0388 139.987 16.2449C139.586 18.451 139.185 21.0582 138.784 24.0665C138.382 27.0748 137.781 30.2836 137.179 33.6931C136.577 37.1025 135.976 40.3114 135.575 43.5202C134.973 46.5286 134.572 49.3363 134.171 51.7429C133.77 54.1496 133.569 55.754 133.569 56.5563C134.572 55.5535 135.976 54.5507 137.58 53.3474C139.185 52.1441 140.99 51.1413 142.795 49.938C144.6 48.9352 146.605 47.9324 148.41 47.1302C150.416 46.328 152.221 45.7263 153.825 45.5258C157.235 44.9241 160.443 44.9241 163.051 45.7263C165.858 46.5285 168.064 47.7319 170.07 49.1358C172.076 50.5396 173.68 52.1441 175.084 53.9491C176.488 55.754 177.491 57.1579 178.293 58.1607Z" fill="white"/>
<path d="M242.47 36.902C244.476 40.1109 245.879 43.3197 246.281 46.3281C246.882 49.3364 246.281 52.1441 244.877 54.7513C244.074 55.9547 243.272 57.158 242.069 58.1608C240.866 59.1635 239.662 60.1663 238.258 61.1691C236.854 61.9713 235.451 62.7735 234.047 63.5757C232.643 64.1774 231.239 64.7791 230.036 65.1802C224.821 66.9852 219.406 67.9879 213.791 67.7873C208.376 67.5868 202.961 66.584 197.746 64.3779C196.744 63.9768 195.54 63.3752 194.538 62.7735C193.334 62.1718 192.331 61.3696 191.329 60.5674C190.326 59.7652 189.524 58.7624 188.721 57.7596C188.12 56.7569 187.518 55.5535 187.518 54.3502C187.318 53.1469 187.518 51.9436 187.919 50.7402C188.32 49.5369 188.922 48.5342 189.524 47.5314C190.326 46.5286 191.128 45.7264 192.131 44.9242C193.134 44.122 194.136 43.5203 195.34 42.9186C198.148 41.7153 201.156 40.7125 204.365 40.3114C207.574 39.9103 210.582 39.7098 213.791 39.9103C216.398 40.1109 219.005 40.512 221.813 41.1137C224.621 41.7153 227.027 42.9186 228.832 44.7236C229.033 44.9242 229.233 45.3253 229.033 45.5259C228.832 45.7264 228.832 45.927 228.431 46.1275C226.626 46.9297 224.621 47.5314 222.415 47.7319C221.813 47.7319 221.612 47.5314 221.412 47.1303C221.412 46.7292 221.612 46.3281 222.013 46.3281C222.816 46.1275 223.417 45.9269 224.019 45.7264C224.621 45.5258 225.423 45.3253 226.025 45.1247C224.42 43.9214 222.615 43.1192 220.409 42.7181C218.203 42.317 216.197 42.1164 214.192 41.9159C211.184 41.7153 207.975 41.9159 204.565 42.317C201.356 42.7181 198.148 43.7209 195.34 45.1247C194.337 45.7264 193.535 46.3281 192.532 47.1303C191.73 47.9325 191.128 48.9353 190.526 49.938C190.125 50.9408 189.925 52.1441 189.925 53.3475C190.125 54.5508 190.526 55.5535 191.329 56.7569C192.532 58.5619 194.538 59.9658 196.744 61.1691C199.15 62.3724 201.757 63.1746 204.565 63.7763C207.373 64.3779 210.181 64.779 212.989 64.779C215.796 64.779 218.203 64.779 220.409 64.3779C223.016 63.9768 225.623 63.3752 228.632 62.573C231.64 61.7707 234.247 60.3668 236.654 58.7624C239.061 57.158 240.866 55.1524 241.868 52.7458C243.072 50.3391 243.072 47.5314 242.069 44.3225C241.267 41.7153 239.863 39.3087 238.058 36.902C236.253 34.6959 234.047 32.4898 231.64 30.2837C229.233 28.2782 226.827 26.2727 224.22 24.4677C221.612 22.6627 219.206 20.8577 217 19.2532C214.793 17.6488 212.788 16.0444 211.384 14.6405C209.78 13.2366 208.777 11.8327 208.376 10.4289C207.975 9.4261 208.175 8.42332 208.777 7.21999C209.379 6.21722 210.582 5.415 212.387 5.21445C214.794 4.81334 217.401 4.81335 219.807 5.41502C222.415 6.01668 224.821 6.81889 227.027 8.02221C229.434 9.22554 231.64 10.6294 233.646 12.2338C235.852 13.8383 237.657 15.6433 239.462 17.2477C239.662 17.4483 239.462 17.6488 238.86 17.8494C238.258 18.0499 237.657 18.0499 237.256 17.6488C235.049 16.0444 232.843 14.6405 230.637 13.0361C228.431 11.4316 226.225 10.2283 224.019 9.22553C222.013 8.22276 220.208 7.62111 218.604 7.42056C217 7.22 215.596 7.22 214.593 7.42056C213.59 7.62111 212.788 8.02222 212.587 8.62388C212.387 9.22554 212.587 10.0278 213.39 10.83C213.791 11.6322 214.593 12.4344 215.796 13.6377C217 14.6405 218.604 15.8438 220.409 17.2477C222.214 18.6516 224.22 20.0555 226.225 21.6599C228.231 23.2643 230.437 24.8688 232.442 26.4732C234.448 28.0776 236.253 29.8826 238.058 31.6876C239.863 33.6931 241.267 35.2976 242.47 36.902Z" fill="white"/>
<path d="M287.795 45.7263C288.397 45.5258 288.598 45.5258 288.798 45.9269C288.999 46.1275 288.999 46.5286 288.999 46.9297C288.999 47.3308 288.798 47.7319 288.598 48.133C288.397 48.5341 287.996 48.7347 287.795 48.7347C284.988 49.3363 282.18 49.7375 279.372 50.1386C276.564 50.3391 273.957 50.5397 271.551 50.5397C268.943 50.5397 266.737 50.5397 264.531 50.5397C262.325 50.5397 260.52 50.3391 258.916 50.3391C259.918 51.3419 260.921 52.5452 261.924 54.1496C262.927 55.7541 263.729 57.3585 264.13 58.9629C264.331 60.5674 263.93 61.3696 262.726 61.7707C260.921 61.9712 259.317 61.7707 257.913 61.169C256.308 60.5674 255.105 59.5646 254.102 58.3613C253.1 57.1579 252.297 55.7541 251.896 53.9491C251.495 52.1441 251.495 50.5397 251.696 48.5341C251.896 47.5314 252.297 46.5286 252.698 45.7263C253.1 44.9241 253.501 44.523 253.902 44.523C254.704 44.523 255.105 45.1247 254.905 46.5286C254.704 47.9325 254.704 49.3363 254.704 50.7402C254.905 52.1441 255.105 53.3474 255.707 54.3502C256.108 55.353 256.91 56.3557 257.712 57.158C258.515 57.9602 259.517 58.3613 260.721 58.7624C260.921 57.7596 260.52 56.3557 259.718 54.7513C258.916 53.1469 257.712 51.743 256.108 50.1386C255.907 49.938 255.707 49.7374 255.707 49.5369C255.707 49.1358 255.707 48.9352 255.907 48.5341C256.108 48.133 256.308 47.9324 256.509 47.7319C256.71 47.5313 256.91 47.3308 257.111 47.3308C261.924 47.7319 266.938 48.133 272.152 48.133C276.966 48.133 282.38 47.3308 287.795 45.7263Z" fill="white"/>
<path d="M329.31 46.7291C328.508 48.133 327.706 49.3364 326.703 50.5397C325.7 51.743 324.697 52.9463 323.695 53.7485C322.692 54.7513 321.689 55.353 320.686 55.9546C319.684 56.5563 318.881 56.7569 318.079 56.7569C316.876 56.7569 315.873 56.5563 315.071 55.9546C314.269 55.5535 313.667 54.9519 313.266 54.1497C312.865 53.3475 312.664 52.5452 312.664 51.5425C312.664 50.5397 312.664 49.7375 312.865 48.9352C311.26 50.5397 309.455 52.3447 307.45 54.1497C305.444 55.9547 303.238 57.5591 301.032 58.963C298.826 60.1663 296.62 61.169 294.414 61.3696C292.208 61.7707 290.202 61.169 288.197 59.7652C287.194 58.9629 286.392 57.9602 285.99 56.5563C285.589 55.1524 285.589 53.7486 285.79 52.1441C285.99 50.5397 286.392 48.9353 287.194 47.5314C287.996 45.9269 288.798 44.5231 289.801 43.3197C290.603 42.7181 291.205 42.317 292.007 42.317C292.809 42.317 292.809 42.7181 292.408 43.3197C291.606 44.3225 291.004 45.5258 290.202 47.1303C289.6 48.7347 288.999 50.1386 288.798 51.743C288.598 53.3474 288.798 54.5508 289.199 55.7541C289.801 56.9574 290.804 57.7596 292.408 58.1608C294.213 58.5619 296.018 58.3613 297.823 57.3585C299.829 56.3557 301.634 55.1524 303.439 53.7485C305.244 52.1441 307.049 50.7402 308.854 49.1358C310.458 47.5314 312.063 46.3281 313.466 45.5258C313.868 45.5258 314.269 45.7264 314.67 45.9269C315.271 46.1275 315.271 46.7292 315.071 47.1303C314.87 47.9325 314.67 48.9352 314.67 49.7375C314.67 50.5397 314.87 51.3419 315.271 51.9436C315.673 52.5452 316.074 52.9463 316.675 53.1469C317.277 53.3475 318.28 53.3475 319.282 53.1469C319.884 53.1469 320.686 52.7458 321.288 52.3447C321.89 51.743 322.692 51.1414 323.294 50.5397C323.895 49.7375 324.497 49.1358 325.099 48.3336C325.7 47.5314 326.101 46.9297 326.502 46.1275C326.904 45.7264 327.505 45.5258 328.107 45.5258C329.511 45.9269 329.711 46.1275 329.31 46.7291Z" fill="white"/>
<path d="M367.215 45.7263C367.816 45.3252 368.017 45.5258 368.017 46.1275C368.017 46.7291 367.616 47.3308 366.813 47.7319C362.401 50.7402 357.989 53.1469 353.577 55.1524C349.165 57.158 345.154 58.5618 341.343 59.5646C337.533 60.5674 334.324 61.169 331.315 61.169C328.307 61.169 326.302 60.5674 324.697 59.5646C324.497 59.364 324.296 59.3641 324.296 59.1635C324.095 58.7624 324.296 58.1607 324.697 57.5591C325.7 56.5563 326.903 55.5535 328.107 54.7513C329.31 53.9491 330.714 52.9463 331.917 52.1441C333.321 51.3419 334.524 50.5396 335.728 49.7374C336.931 48.9352 337.934 48.133 338.936 47.3308C339.538 46.9297 339.939 46.5286 339.939 46.1275C339.939 45.7264 339.739 45.5258 339.137 45.3252C338.736 45.1247 337.934 44.9241 337.131 44.9241C336.329 44.7236 335.527 44.7236 334.524 44.7236C334.123 44.7236 333.722 44.523 333.521 44.3225C333.321 44.1219 332.92 43.7208 332.92 43.5203C332.719 43.3197 332.719 42.9186 332.92 42.718C332.92 42.5175 333.321 42.3169 333.923 42.3169C334.725 42.3169 335.728 42.1164 336.931 42.1164C338.134 42.1164 339.338 42.1164 340.541 42.3169C341.744 42.5175 342.747 42.7181 343.549 43.1192C344.351 43.5203 344.953 43.9214 344.953 44.7236C344.953 45.3252 344.351 46.328 342.948 47.3308C341.744 48.5341 339.939 49.7374 337.733 51.5424C335.928 52.9463 334.524 53.9491 333.321 54.5507C332.118 55.353 330.914 56.1552 329.51 57.3585C330.313 57.7596 331.716 57.9601 333.722 57.7596C335.728 57.559 337.733 57.1579 340.14 56.3557C342.546 55.7541 345.154 54.9518 347.761 53.9491C350.368 52.9463 352.975 51.9435 355.382 50.9408C357.789 49.938 359.995 48.9352 362 47.9325C364.607 47.1302 366.011 46.328 367.215 45.7263Z" fill="white"/>
<path d="M384.462 43.7208C384.663 43.9213 384.663 44.3225 384.462 44.523C384.262 44.7236 384.061 45.1247 383.861 45.3252C383.46 45.5258 383.259 45.7263 382.858 45.7263C382.457 45.7263 382.256 45.7263 382.056 45.5258C381.053 44.7236 380.05 44.3225 378.646 43.9213C377.443 43.7208 375.839 43.7208 374.034 44.1219C372.229 44.523 370.624 45.3252 369.02 46.328C367.415 47.3308 366.212 48.5341 365.009 49.7374C364.006 50.9407 363.204 51.9435 362.802 52.9463C362.401 53.9491 362.602 54.5507 363.204 54.7513C364.206 55.1524 365.209 55.1524 366.613 54.9518C367.816 54.7513 369.22 54.5507 370.424 53.9491C371.627 53.5479 372.83 52.9463 373.833 52.5452C374.836 51.9435 375.437 51.5424 375.839 50.9407C376.641 49.938 377.443 49.5369 378.045 49.5369C378.646 49.5369 379.047 49.7374 379.248 50.1385C379.449 51.1413 379.448 51.9435 379.649 52.9463C379.649 53.9491 379.85 54.7513 379.85 55.3529C379.85 55.754 379.649 56.1552 379.047 56.5563C378.446 56.9574 378.045 56.9574 377.443 56.3557C377.042 55.9546 376.841 55.5535 376.841 54.9518C376.641 54.3502 376.641 53.949 376.641 53.7485C376.24 54.1496 375.437 54.5507 374.435 55.1524C373.432 55.7541 372.229 56.1551 370.825 56.3557C369.421 56.7568 368.017 56.9574 366.613 57.3585C365.209 57.559 364.006 57.559 362.802 57.559C361.8 57.3585 360.997 57.1579 360.396 56.7568C359.794 56.3557 359.393 55.754 359.393 54.9518C359.393 53.7485 359.995 52.3446 360.797 50.9407C361.599 49.5369 362.802 48.133 364.006 46.7291C365.41 45.3252 366.814 44.1219 368.619 43.1191C370.424 42.1164 372.229 41.3141 374.234 40.913C376.641 40.5119 378.446 40.3114 380.05 40.7125C381.855 41.1136 383.259 42.1163 384.462 43.7208Z" fill="white"/>
</svg>
