<svg width="16" height="21" viewBox="0 0 16 21" fill="none" xmlns="http://www.w3.org/2000/svg">
<path d="M8 2.29346C6.35228 2.29346 5 3.64574 5 5.29346V8.29346H14C15.1046 8.29346 16 9.18889 16 10.2935V18.2935C16 19.398 15.1046 20.2935 14 20.2935H2C0.895432 20.2935 0 19.398 0 18.2935V10.2935C0 9.18889 0.895431 8.29346 2 8.29346H3V5.29346C3 2.54117 5.24771 0.293457 8 0.293457C10.7523 0.293457 13 2.54117 13 5.29346C13 5.84574 12.5523 6.29346 12 6.29346C11.4477 6.29346 11 5.84574 11 5.29346C11 3.64574 9.64772 2.29346 8 2.29346ZM2 10.2935V18.2935H14V10.2935H2Z" fill="#049496"/>
</svg>
