<svg width="16" height="15" viewBox="0 0 16 15" fill="none" xmlns="http://www.w3.org/2000/svg">
<path d="M6.48647 1.68693C4.02823 1.68693 2.03544 3.63654 2.03544 6.0415C2.03544 8.44646 4.02823 10.3961 6.48647 10.3961C8.9447 10.3961 10.9375 8.44646 10.9375 6.0415C10.9375 3.63654 8.9447 1.68693 6.48647 1.68693ZM0.551758 6.0415C0.551758 2.83489 3.20882 0.235413 6.48647 0.235413C9.76412 0.235413 12.4212 2.83489 12.4212 6.0415C12.4212 7.38322 11.956 8.61865 11.1748 9.60183L15.1713 13.5117C15.461 13.7951 15.461 14.2546 15.1713 14.5381C14.8815 14.8215 14.4118 14.8215 14.1221 14.5381L10.1257 10.6282C9.12071 11.3925 7.85791 11.8476 6.48647 11.8476C3.20882 11.8476 0.551758 9.24811 0.551758 6.0415Z" fill="white"/>
</svg>
