<svg width="19" height="21" viewBox="0 0 19 21" fill="none" xmlns="http://www.w3.org/2000/svg">
<path d="M9.47998 2.23157C7.27084 2.23157 5.47998 4.02243 5.47998 6.23157C5.47998 8.44071 7.27084 10.2316 9.47998 10.2316C11.6891 10.2316 13.48 8.44071 13.48 6.23157C13.48 4.02243 11.6891 2.23157 9.47998 2.23157ZM3.47998 6.23157C3.47998 2.91786 6.16627 0.231567 9.47998 0.231567C12.7937 0.231567 15.48 2.91786 15.48 6.23157C15.48 9.54528 12.7937 12.2316 9.47998 12.2316C6.16627 12.2316 3.47998 9.54528 3.47998 6.23157ZM5.47998 16.2316C3.82313 16.2316 2.47998 17.5747 2.47998 19.2316C2.47998 19.7838 2.03227 20.2316 1.47998 20.2316C0.927696 20.2316 0.47998 19.7838 0.47998 19.2316C0.47998 16.4701 2.71856 14.2316 5.47998 14.2316H13.48C16.2414 14.2316 18.48 16.4701 18.48 19.2316C18.48 19.7839 18.0323 20.2316 17.48 20.2316C16.9277 20.2316 16.48 19.7839 16.48 19.2316C16.48 17.5747 15.1368 16.2316 13.48 16.2316H5.47998Z" fill="#049496"/>
</svg>
