<svg width="1892" height="1533" viewBox="0 0 1892 1533" fill="none" xmlns="http://www.w3.org/2000/svg">
<g clip-path="url(#clip0_34_8)">
<path d="M577.371 896.717C571.449 895.73 438.21 876 389.849 727.041C354.319 617.541 407.614 567.23 432.288 550.46C471.767 523.825 525.062 521.852 554.671 545.527C563.554 552.433 564.541 565.257 557.632 574.136C550.723 583.014 537.893 584 529.01 577.095C517.167 567.23 483.61 565.257 455.975 584C419.458 608.663 410.575 655.027 429.327 714.217C468.806 838.514 578.358 856.271 583.293 856.271C594.149 858.244 602.045 868.109 600.071 878.96C598.097 889.811 588.228 897.703 577.371 896.717Z" fill="#00AC9C"/>
<path d="M948.467 1164.05C890.236 1164.05 381.953 1161.1 381.953 1065.41C381.953 1048.64 381.953 1003.26 659.288 978.595C670.145 977.609 680.014 985.501 681.001 996.352C681.988 1007.2 674.092 1017.07 662.249 1018.05C501.375 1032.85 440.183 1054.55 425.379 1065.41C457.948 1091.05 651.392 1123.61 948.467 1123.61C1244.55 1123.61 1438 1090.07 1471.56 1065.41C1455.76 1054.55 1395.56 1032.85 1233.7 1018.05C1222.84 1017.07 1214.95 1007.2 1215.93 996.352C1216.92 985.501 1226.79 977.609 1237.65 978.595C1514.98 1003.26 1514.98 1048.64 1514.98 1065.41C1514.98 1162.08 1006.7 1164.05 948.467 1164.05Z" fill="#00AC9C"/>
<path d="M1273.18 446.879H1234.68C1223.83 460.69 1210.01 475.487 1194.22 487.325H1255.41C1260.35 546.514 1271.2 740.852 1208.04 872.055C1135.99 1021.01 1066.9 1043.7 1066.9 1043.7C1066.9 1043.7 1031.37 1052.58 949.453 1052.58C867.536 1052.58 832.005 1043.7 832.005 1043.7C831.018 1043.7 761.931 1021.01 689.883 872.055C638.561 765.514 636.588 616.555 639.548 533.69C625.731 528.757 612.9 522.838 600.07 515.933C595.135 598.798 594.148 767.487 653.366 889.811C734.296 1058.5 817.201 1081.19 820.162 1082.18C822.136 1082.18 859.64 1093.03 948.466 1093.03C1037.29 1093.03 1074.8 1083.16 1076.77 1082.18C1079.73 1081.19 1162.64 1057.51 1244.55 889.811C1324.5 724.082 1294.89 475.487 1293.9 465.622C1291.93 454.771 1283.05 446.879 1273.18 446.879Z" fill="#00AC9C"/>
<path d="M884.315 600.771C788.581 600.771 743.18 539.609 728.376 512.974C593.163 498.177 491.506 410.379 491.506 307.785C491.506 193.352 616.85 99.636 770.815 99.636C924.781 99.636 1050.12 193.352 1050.12 307.785C1050.12 393.609 980.051 469.568 874.446 501.136C877.407 540.595 911.95 563.285 911.95 563.285C918.859 568.217 922.807 577.095 920.833 584.987C918.859 593.866 911.95 599.785 903.068 599.785C896.159 600.771 890.237 600.771 884.315 600.771ZM759.959 488.312C763.907 496.204 788.581 544.541 851.746 558.352C839.902 540.596 831.02 515.933 833.981 486.339C833.981 484.366 833.981 483.379 834.968 481.406C836.941 474.501 842.863 468.582 849.772 467.596C945.507 443.92 1009.66 380.785 1009.66 309.758C1009.66 217.028 903.068 142.055 770.815 142.055C639.55 142.055 531.971 217.028 531.971 309.758C531.971 394.595 622.771 466.609 743.18 476.474C750.089 477.46 756.011 480.42 758.972 486.339C758.972 486.339 759.959 487.325 759.959 488.312Z" fill="#860076"/>
<path d="M1074.8 485.352C1068.88 485.352 1063.94 485.352 1058.02 484.365C1049.14 483.379 1042.23 477.46 1040.25 469.568C1038.28 461.676 1041.24 452.797 1049.14 447.865C1050.12 446.879 1082.69 425.176 1085.66 388.676C1081.71 387.689 1078.75 386.703 1074.8 385.716C1063.94 381.77 1059.01 370.919 1061.97 360.068C1065.92 349.216 1076.77 344.284 1087.63 347.243C1094.54 350.203 1102.43 352.176 1110.33 354.149C1117.24 356.122 1123.16 361.054 1125.13 367.96C1126.12 369.933 1126.12 371.906 1126.12 373.879C1128.09 401.5 1120.2 424.189 1109.34 440.96C1169.55 427.149 1193.23 379.797 1196.19 373.879C1199.16 366.973 1206.06 362.041 1212.97 361.054C1328.45 351.189 1416.29 283.122 1416.29 201.243C1416.29 112.46 1312.66 39.4596 1186.32 39.4596C1106.38 39.4596 1032.36 68.0677 989.92 117.392C983.011 125.284 970.181 126.27 961.298 119.365C953.403 112.46 952.416 99.6353 959.324 90.7569C1009.66 33.5407 1093.55 -0.986328 1186.32 -0.986328C1335.36 -0.986328 1456.75 89.7704 1456.75 200.257C1456.75 300.879 1359.04 384.73 1227.78 399.527C1207.05 436.027 1157.7 485.352 1074.8 485.352Z" fill="#FF52B5"/>
<path d="M1225.8 1290.32V1317.95H1221.86V1239.03H1242.58C1248.5 1240.01 1253.44 1241.99 1257.39 1246.92C1262.32 1251.85 1265.28 1257.77 1265.28 1264.68C1265.28 1271.58 1262.32 1277.5 1257.39 1282.43C1252.45 1287.36 1246.53 1290.32 1239.62 1290.32H1225.8ZM1225.8 1243.96V1286.38H1239.62C1245.54 1286.38 1250.48 1284.41 1254.43 1280.46C1258.37 1276.51 1260.35 1271.58 1260.35 1265.66C1260.35 1259.74 1258.37 1254.81 1254.43 1250.86C1250.48 1246.92 1245.54 1244.95 1239.62 1244.95H1225.8V1243.96Z" fill="#00AC9C"/>
<path d="M1300.81 1290.32H1299.82H1286.01V1317.95H1282.06V1239.03H1302.78C1308.71 1240.01 1313.64 1241.99 1317.59 1246.92C1322.52 1251.85 1325.48 1257.77 1325.48 1264.68C1325.48 1271.58 1322.52 1277.5 1317.59 1282.43C1313.64 1286.38 1309.69 1288.35 1305.75 1289.34L1323.51 1316.96H1317.59L1300.81 1290.32ZM1286.01 1243.96V1286.38H1299.82C1305.75 1286.38 1310.68 1284.41 1314.63 1280.46C1318.58 1276.51 1320.55 1271.58 1320.55 1265.66C1320.55 1259.74 1318.58 1254.81 1314.63 1250.86C1310.68 1246.92 1305.75 1244.95 1299.82 1244.95H1286.01V1243.96Z" fill="#00AC9C"/>
<path d="M1409.38 1249.88C1417.27 1257.77 1421.22 1267.64 1421.22 1278.49C1421.22 1289.34 1417.27 1299.2 1409.38 1307.09C1401.48 1314.99 1391.61 1318.93 1380.76 1318.93C1369.9 1318.93 1360.03 1314.99 1352.13 1307.09C1344.24 1299.2 1340.29 1289.34 1340.29 1278.49C1340.29 1267.64 1344.24 1257.77 1352.13 1249.88C1360.03 1241.99 1369.9 1238.04 1380.76 1238.04C1391.61 1238.04 1401.48 1241.99 1409.38 1249.88ZM1380.76 1242.97C1370.89 1242.97 1362 1246.92 1355.09 1253.82C1348.19 1260.73 1344.24 1269.61 1344.24 1279.47C1344.24 1289.34 1348.19 1298.22 1355.09 1305.12C1362 1312.03 1370.89 1315.97 1380.76 1315.97C1390.63 1315.97 1399.51 1312.03 1406.42 1305.12C1413.33 1298.22 1417.27 1289.34 1417.27 1279.47C1417.27 1269.61 1413.33 1260.73 1406.42 1253.82C1398.52 1245.93 1390.63 1242.97 1380.76 1242.97Z" fill="#00AC9C"/>
<path d="M1460.7 1274.54C1454.78 1272.57 1450.83 1270.59 1447.87 1266.65C1444.91 1263.69 1442.93 1259.74 1442.93 1254.81C1442.93 1249.88 1444.91 1246.92 1447.87 1242.97C1450.83 1240.01 1454.78 1238.04 1459.71 1238.04C1464.65 1238.04 1468.59 1240.01 1471.55 1242.97C1473.53 1244.95 1474.52 1246.92 1475.5 1248.89L1471.55 1250.86C1470.57 1248.89 1469.58 1247.91 1468.59 1246.92C1466.62 1244.95 1463.66 1242.97 1459.71 1242.97C1456.75 1242.97 1453.79 1243.96 1450.83 1246.92C1448.85 1248.89 1446.88 1251.85 1446.88 1255.8C1446.88 1258.76 1447.87 1261.72 1450.83 1264.68C1452.8 1266.65 1455.76 1268.62 1459.71 1270.59C1465.63 1272.57 1471.55 1275.53 1475.5 1280.46C1480.44 1285.39 1482.41 1290.32 1482.41 1297.23C1482.41 1304.14 1480.44 1309.07 1475.5 1314C1470.57 1318.93 1465.63 1320.91 1458.72 1320.91C1452.8 1320.91 1446.88 1318.93 1441.95 1314C1438 1310.05 1436.02 1306.11 1435.04 1301.18L1438.99 1299.2C1438.99 1303.15 1440.96 1307.09 1444.91 1310.05C1448.85 1314 1452.8 1315.97 1458.72 1315.97C1463.66 1315.97 1468.59 1314 1472.54 1310.05C1476.49 1306.11 1478.46 1302.16 1478.46 1296.24C1478.46 1291.31 1476.49 1286.38 1472.54 1282.43C1469.58 1279.47 1465.63 1276.51 1460.7 1274.54Z" fill="#00AC9C"/>
<path d="M1536.7 1288.35H1509.06L1498.2 1317.95H1493.27L1522.88 1238.04L1552.49 1317.95H1547.55L1536.7 1288.35ZM1534.72 1283.42L1522.88 1250.86L1511.03 1283.42H1534.72Z" fill="#00AC9C"/>
<path d="M1689.67 1305.12L1692.63 1308.08C1684.74 1314.99 1675.86 1318.93 1665.99 1318.93C1655.13 1318.93 1645.26 1314.99 1637.36 1307.09C1629.47 1299.2 1625.52 1289.34 1625.52 1278.49C1625.52 1267.64 1629.47 1257.77 1637.36 1249.88C1645.26 1241.99 1655.13 1238.04 1665.99 1238.04C1675.86 1238.04 1685.73 1241.99 1692.63 1248.89L1689.67 1251.85C1682.76 1245.93 1674.87 1242.97 1665.99 1242.97C1656.12 1242.97 1648.22 1246.92 1640.33 1253.82C1633.42 1260.73 1629.47 1269.61 1629.47 1279.47C1629.47 1289.34 1633.42 1298.22 1640.33 1305.12C1647.23 1312.03 1656.12 1315.97 1665.99 1315.97C1674.87 1314 1682.76 1311.04 1689.67 1305.12Z" fill="#00AC9C"/>
<path d="M1779.49 1249.88C1787.38 1257.77 1791.33 1267.64 1791.33 1278.49C1791.33 1289.34 1787.38 1299.2 1779.49 1307.09C1771.59 1314.99 1761.72 1318.93 1750.87 1318.93C1740.01 1318.93 1730.14 1314.99 1722.24 1307.09C1714.35 1299.2 1710.4 1289.34 1710.4 1278.49C1710.4 1267.64 1714.35 1257.77 1722.24 1249.88C1730.14 1241.99 1740.01 1238.04 1750.87 1238.04C1761.72 1238.04 1771.59 1241.99 1779.49 1249.88ZM1750.87 1242.97C1741 1242.97 1732.11 1246.92 1725.2 1253.82C1718.3 1260.73 1714.35 1269.61 1714.35 1279.47C1714.35 1289.34 1718.3 1298.22 1725.2 1305.12C1732.11 1312.03 1741 1315.97 1750.87 1315.97C1760.73 1315.97 1769.62 1312.03 1776.53 1305.12C1783.44 1298.22 1787.38 1289.34 1787.38 1279.47C1787.38 1269.61 1783.44 1260.73 1776.53 1253.82C1769.62 1245.93 1760.73 1242.97 1750.87 1242.97Z" fill="#00AC9C"/>
<path d="M1816 1239.03L1845.61 1290.32L1875.22 1239.03H1880.16V1240.01V1317.95H1875.22V1247.91L1845.61 1299.2L1816 1247.91V1317.95H1811.07V1240.01V1239.03H1816Z" fill="#00AC9C"/>
<path d="M344.449 1333.73C345.436 1342.61 345.436 1352.47 346.423 1363.32C346.423 1373.19 347.409 1384.04 346.423 1394.89C346.423 1405.74 345.436 1415.61 345.436 1426.46C344.449 1437.31 343.462 1446.19 342.475 1456.05C341.488 1461.97 340.501 1468.88 338.527 1475.78C336.553 1482.69 334.579 1488.61 330.631 1494.53C327.67 1500.45 323.722 1505.38 318.788 1510.31C313.853 1515.24 307.931 1519.19 301.022 1521.16C289.179 1525.11 277.335 1525.11 264.505 1522.15C251.674 1519.19 239.831 1512.28 229.961 1503.41C220.092 1494.53 210.222 1483.68 202.327 1471.84C194.431 1460 186.535 1447.18 180.613 1434.35C174.692 1421.53 168.77 1407.72 163.835 1393.91C158.9 1380.09 154.953 1367.27 151.992 1354.45C145.083 1333.73 140.148 1313.01 135.213 1291.31C130.279 1269.61 127.318 1247.91 125.344 1225.22C111.526 1245.93 98.6959 1267.63 85.8654 1290.32C73.035 1312.03 61.1914 1334.72 51.3219 1357.41C40.4653 1380.09 31.5827 1403.77 23.687 1427.45C15.7913 1451.12 10.8565 1474.8 6.90871 1499.46C6.90871 1503.41 5.92175 1505.38 3.94784 1505.38C1.97392 1505.38 0 1503.41 0 1499.46C2.96088 1473.81 7.89567 1447.18 16.7783 1421.53C24.674 1395.88 34.5436 1370.23 46.3871 1345.57C58.2306 1320.91 71.061 1296.24 84.8785 1271.58C98.6959 1247.91 112.513 1224.23 126.331 1201.54C128.305 1199.57 130.279 1199.57 134.226 1199.57C138.174 1199.57 140.148 1201.54 140.148 1204.5C140.148 1208.45 140.148 1212.39 140.148 1216.34C140.148 1220.28 140.148 1224.23 141.135 1228.18C144.096 1255.8 149.031 1282.43 155.939 1309.07C161.861 1335.7 170.744 1362.34 181.6 1389.96C186.535 1403.77 192.457 1417.58 199.366 1430.41C206.274 1443.23 214.17 1456.05 222.066 1467.89C225.027 1471.84 228.974 1476.77 232.922 1480.72C236.87 1485.65 241.805 1489.59 246.74 1493.54C251.674 1497.49 256.609 1500.45 262.531 1503.41C268.453 1506.36 273.388 1508.34 279.309 1509.32C289.179 1510.31 297.075 1508.34 302.996 1504.39C308.918 1500.45 313.853 1494.53 317.801 1487.62C321.749 1481.7 324.709 1473.81 326.683 1465.92C328.657 1457.04 330.631 1449.15 331.618 1440.27C332.605 1431.39 333.592 1423.5 334.579 1415.61C334.579 1407.72 334.579 1400.81 334.579 1393.91C334.579 1366.28 333.592 1340.63 330.631 1315.97C327.67 1291.31 323.722 1266.65 318.788 1241.99C317.801 1239.03 319.775 1236.07 322.736 1235.08C325.696 1234.09 327.67 1235.08 328.657 1239.03C333.592 1253.82 337.54 1269.61 339.514 1286.38C340.501 1303.15 342.475 1318.93 344.449 1333.73Z" fill="#860076"/>
<path d="M484.597 1414.62C485.584 1415.61 485.584 1417.58 484.597 1418.57C483.61 1419.55 482.623 1421.53 481.636 1422.51C479.662 1423.5 478.675 1424.49 476.701 1424.49C474.727 1425.47 473.74 1424.49 472.753 1423.5C467.818 1419.55 462.884 1417.58 455.975 1415.61C449.066 1414.62 442.158 1414.62 433.275 1416.6C424.392 1418.57 416.497 1422.51 408.601 1427.45C400.705 1432.38 394.784 1438.3 388.862 1444.22C383.927 1450.14 379.979 1455.07 378.005 1460C376.031 1464.93 377.018 1467.89 379.979 1468.88C384.914 1470.85 389.849 1470.85 396.757 1469.87C402.679 1468.88 409.588 1467.89 415.51 1464.93C421.431 1462.96 427.353 1460 432.288 1458.03C437.223 1455.07 440.184 1453.09 442.158 1450.14C446.105 1445.2 450.053 1443.23 453.014 1443.23C455.975 1443.23 457.949 1444.22 458.936 1446.19C459.923 1451.12 459.923 1455.07 460.91 1460C460.91 1464.93 461.897 1468.88 461.897 1471.84C461.897 1473.81 460.91 1475.78 457.949 1477.76C454.988 1479.73 453.014 1479.73 450.053 1476.77C448.079 1474.8 447.092 1472.82 446.105 1469.87C445.118 1466.91 445.118 1464.93 445.118 1463.95C443.144 1465.92 439.197 1467.89 434.262 1470.85C429.327 1473.81 423.405 1475.78 416.497 1476.77C409.588 1478.74 402.679 1479.73 395.77 1481.7C388.862 1482.69 382.94 1482.69 377.018 1482.69C372.083 1481.7 368.136 1480.72 365.175 1478.74C362.214 1476.77 360.24 1473.81 360.24 1469.87C360.24 1463.95 363.201 1457.04 367.149 1450.14C371.097 1443.23 377.018 1436.32 382.94 1429.42C389.849 1422.51 396.757 1416.6 405.64 1411.66C414.523 1406.73 423.405 1402.78 433.275 1400.81C445.118 1398.84 454.001 1397.85 461.897 1399.82C471.766 1401.8 478.675 1406.73 484.597 1414.62Z" fill="#860076"/>
<path d="M934.649 1332.74C936.623 1332.74 937.61 1333.73 937.61 1336.69C937.61 1338.66 936.623 1339.65 934.649 1339.65C885.301 1342.61 835.953 1346.55 787.592 1351.49C739.231 1356.42 690.87 1361.35 642.509 1366.28C624.744 1368.26 607.966 1369.24 592.175 1371.22C576.383 1373.19 560.592 1374.18 541.84 1376.15C540.853 1379.11 539.866 1383.05 538.879 1386.01C537.892 1388.97 536.905 1392.92 534.931 1396.87C533.944 1400.81 531.97 1405.74 529.996 1410.68C528.022 1415.61 526.048 1422.51 524.074 1430.41C523.087 1435.34 521.113 1442.24 519.14 1449.15C517.166 1456.05 516.179 1462.96 515.192 1469.87C515.192 1476.77 515.192 1482.69 517.166 1487.62C519.14 1492.55 523.087 1496.5 528.022 1497.49C530.983 1498.47 533.944 1498.47 537.892 1497.49C541.84 1496.5 544.8 1496.5 548.748 1494.53C552.696 1493.54 556.644 1491.57 560.592 1489.59C564.54 1487.62 567.501 1485.65 570.461 1484.66C583.292 1476.77 597.109 1466.91 610.927 1456.05C624.744 1445.2 637.575 1435.34 649.418 1425.47C652.379 1423.5 654.353 1424.49 654.353 1426.46C654.353 1428.43 653.366 1430.41 652.379 1432.38C649.418 1435.34 645.47 1439.28 640.536 1444.22C635.601 1449.15 631.653 1453.09 626.718 1458.03C621.783 1462.96 616.848 1467.89 611.914 1471.84C606.979 1475.78 602.044 1479.73 598.096 1481.7C594.148 1484.66 588.227 1488.61 581.318 1493.54C574.409 1498.47 566.514 1502.42 558.618 1506.37C550.722 1510.31 542.827 1512.28 533.944 1513.27C526.048 1514.26 519.14 1512.28 513.218 1508.34C508.283 1504.39 505.322 1499.46 503.348 1492.55C501.374 1486.64 500.387 1479.73 501.374 1471.84C501.374 1464.93 502.361 1457.04 504.335 1450.14C505.322 1443.23 507.296 1436.32 509.27 1430.41C511.244 1423.5 513.218 1416.59 514.205 1411.66C516.179 1406.73 517.166 1401.8 519.14 1397.85C521.113 1393.91 522.1 1389.96 523.087 1387C524.074 1383.05 525.061 1380.09 527.035 1376.15C514.205 1377.14 502.361 1378.12 491.505 1379.11C481.635 1380.09 471.766 1380.09 462.883 1380.09C454 1380.09 445.118 1380.09 437.222 1380.09C428.339 1380.09 419.457 1379.11 409.587 1378.12C404.652 1378.12 401.691 1376.15 402.678 1374.18C402.678 1372.2 405.639 1371.22 409.587 1371.22C419.457 1371.22 429.326 1371.22 439.196 1371.22C448.079 1371.22 457.948 1370.23 466.831 1370.23C476.7 1369.24 485.583 1369.24 496.44 1368.26C506.309 1367.27 518.153 1366.28 529.996 1365.3C531.97 1359.38 532.957 1354.45 534.931 1349.51C535.918 1344.58 537.892 1340.64 539.866 1336.69C539.866 1334.72 541.84 1332.74 542.827 1330.77C544.8 1328.8 546.774 1327.81 548.748 1327.81C550.722 1326.82 552.696 1326.82 553.683 1327.81C554.67 1328.8 555.657 1329.78 555.657 1331.76C554.67 1336.69 553.683 1340.64 551.709 1345.57C549.735 1350.5 547.761 1356.42 544.801 1363.32C564.54 1361.35 582.305 1360.37 598.096 1358.39C613.888 1357.41 631.653 1355.43 649.418 1353.46C697.779 1348.53 745.153 1343.59 792.527 1337.68C838.914 1335.7 887.275 1332.74 934.649 1332.74Z" fill="#860076"/>
<path d="M877.407 1485.65C878.394 1487.62 878.394 1489.59 877.407 1490.58C876.42 1491.57 874.446 1492.55 871.485 1493.54C868.524 1493.54 865.564 1493.54 862.603 1492.55C859.642 1491.57 856.681 1489.59 854.707 1486.64C850.759 1481.7 845.824 1474.8 840.89 1467.89C835.955 1460.99 829.046 1455.07 821.15 1449.15C813.255 1443.23 803.385 1440.27 791.542 1437.31C779.698 1435.34 765.881 1436.32 749.102 1440.27C742.194 1442.24 734.298 1445.2 725.415 1449.15C716.533 1453.09 708.637 1458.03 699.754 1462.96C690.872 1467.89 682.976 1473.81 674.094 1479.73C666.198 1485.65 658.302 1490.58 651.394 1496.5C647.446 1499.46 644.485 1499.46 642.511 1496.5C640.537 1493.54 639.55 1490.58 640.537 1487.62C641.524 1483.68 642.511 1475.78 643.498 1463.95C645.472 1452.11 646.459 1439.28 649.42 1424.49C651.394 1409.69 654.354 1393.91 656.328 1377.14C658.302 1360.37 661.263 1344.58 663.237 1328.8C665.211 1314 667.185 1300.19 669.159 1288.35C671.133 1276.51 672.12 1268.62 673.107 1263.69C673.107 1261.72 675.08 1259.74 677.054 1257.77C679.028 1255.8 681.002 1254.81 683.963 1253.82C685.937 1252.84 687.911 1252.84 689.885 1253.82C691.859 1254.81 691.859 1255.8 691.859 1257.77C691.859 1260.73 690.872 1268.62 688.898 1279.47C686.924 1290.32 684.95 1303.15 682.976 1317.95C681.002 1332.74 678.041 1348.53 675.081 1365.3C672.12 1382.07 669.159 1397.85 667.185 1413.64C664.224 1428.43 662.25 1442.24 660.276 1454.08C658.302 1465.92 657.315 1473.81 657.315 1477.76C662.25 1472.82 669.159 1467.89 677.054 1461.97C684.95 1456.05 693.833 1451.12 702.715 1445.2C711.598 1440.27 721.468 1435.34 730.35 1431.39C740.22 1427.45 749.102 1424.49 756.998 1423.5C773.776 1420.54 789.568 1420.54 802.398 1424.49C816.216 1428.43 827.072 1434.35 836.942 1441.26C846.811 1448.16 854.707 1456.05 861.616 1464.93C868.524 1473.81 873.459 1480.72 877.407 1485.65Z" fill="#860076"/>
<path d="M1193.23 1381.08C1203.1 1396.86 1210.01 1412.65 1211.98 1427.45C1214.95 1442.24 1211.98 1456.05 1205.08 1468.88C1201.13 1474.8 1197.18 1480.72 1191.26 1485.65C1185.34 1490.58 1179.42 1495.51 1172.51 1500.45C1165.6 1504.39 1158.69 1508.34 1151.78 1512.28C1144.87 1515.24 1137.96 1518.2 1132.04 1520.18C1106.38 1529.05 1079.73 1533.99 1052.1 1533C1025.45 1532.01 998.802 1527.08 973.141 1516.23C968.206 1514.26 962.284 1511.3 957.349 1508.34C951.428 1505.38 946.493 1501.43 941.558 1497.49C936.623 1493.54 932.675 1488.61 928.727 1483.68C925.767 1478.74 922.806 1472.82 922.806 1466.9C921.819 1460.99 922.806 1455.07 924.78 1449.15C926.754 1443.23 929.714 1438.3 932.675 1433.36C936.623 1428.43 940.571 1424.49 945.506 1420.54C950.441 1416.59 955.375 1413.63 961.297 1410.68C975.115 1404.76 989.919 1399.82 1005.71 1397.85C1021.5 1395.88 1036.31 1394.89 1052.1 1395.88C1064.93 1396.86 1077.76 1398.84 1091.58 1401.8C1105.39 1404.76 1117.24 1410.68 1126.12 1419.55C1127.11 1420.54 1128.09 1422.51 1127.11 1423.5C1126.12 1424.49 1126.12 1425.47 1124.15 1426.46C1115.26 1430.41 1105.39 1433.36 1094.54 1434.35C1091.58 1434.35 1090.59 1433.36 1089.6 1431.39C1089.6 1429.42 1090.59 1427.45 1092.56 1427.45C1096.51 1426.46 1099.47 1425.47 1102.43 1424.49C1105.39 1423.5 1109.34 1422.51 1112.3 1421.53C1104.41 1415.61 1095.52 1411.66 1084.67 1409.69C1073.81 1407.72 1063.94 1406.73 1054.07 1405.74C1039.27 1404.76 1023.48 1405.74 1006.7 1407.72C990.906 1409.69 975.115 1414.62 961.297 1421.53C956.362 1424.49 952.414 1427.45 947.48 1431.39C943.532 1435.34 940.571 1440.27 937.61 1445.2C935.636 1450.13 934.649 1456.05 934.649 1461.97C935.636 1467.89 937.61 1472.82 941.558 1478.74C947.48 1487.62 957.349 1494.53 968.206 1500.45C980.049 1506.36 992.88 1510.31 1006.7 1513.27C1020.51 1516.23 1034.33 1518.2 1048.15 1518.2C1061.97 1518.2 1073.81 1518.2 1084.67 1516.23C1097.5 1514.26 1110.33 1511.3 1125.13 1507.35C1139.94 1503.41 1152.77 1496.5 1164.61 1488.61C1176.45 1480.72 1185.34 1470.85 1190.27 1459.01C1196.19 1447.18 1196.19 1433.36 1191.26 1417.58C1187.31 1404.76 1180.4 1392.92 1171.52 1381.08C1162.64 1370.23 1151.78 1359.38 1139.94 1348.53C1128.09 1338.66 1116.25 1328.8 1103.42 1319.92C1090.59 1311.04 1078.75 1302.16 1067.89 1294.27C1057.03 1286.38 1047.16 1278.49 1040.25 1271.58C1032.36 1264.68 1027.42 1257.77 1025.45 1250.86C1023.48 1245.93 1024.46 1241 1027.42 1235.08C1030.38 1230.15 1036.31 1226.2 1045.19 1225.22C1057.03 1223.24 1069.86 1223.24 1081.71 1226.2C1094.54 1229.16 1106.38 1233.11 1117.24 1239.03C1129.08 1244.95 1139.94 1251.85 1149.81 1259.74C1160.66 1267.63 1169.55 1276.51 1178.43 1284.4C1179.41 1285.39 1178.43 1286.38 1175.47 1287.36C1172.51 1288.35 1169.55 1288.35 1167.57 1286.38C1156.71 1278.49 1145.86 1271.58 1135 1263.69C1124.15 1255.8 1113.29 1249.88 1102.43 1244.95C1092.56 1240.01 1083.68 1237.05 1075.78 1236.07C1067.89 1235.08 1060.98 1235.08 1056.05 1236.07C1051.11 1237.05 1047.16 1239.03 1046.18 1241.99C1045.19 1244.95 1046.18 1248.89 1050.12 1252.84C1052.1 1256.78 1056.05 1260.73 1061.97 1266.65C1067.89 1271.58 1075.78 1277.5 1084.67 1284.4C1093.55 1291.31 1103.42 1298.22 1113.29 1306.11C1123.16 1314 1134.01 1321.89 1143.88 1329.78C1153.75 1337.68 1162.64 1346.55 1171.52 1355.43C1180.4 1365.3 1187.31 1373.19 1193.23 1381.08Z" fill="#860076"/>
<path d="M1416.29 1424.49C1419.25 1423.5 1420.23 1423.5 1421.22 1425.47C1422.21 1426.46 1422.21 1428.43 1422.21 1430.4C1422.21 1432.38 1421.22 1434.35 1420.23 1436.32C1419.25 1438.3 1417.27 1439.28 1416.29 1439.28C1402.47 1442.24 1388.65 1444.22 1374.83 1446.19C1361.02 1447.18 1348.19 1448.16 1336.34 1448.16C1323.51 1448.16 1312.66 1448.16 1301.8 1448.16C1290.94 1448.16 1282.06 1447.18 1274.16 1447.18C1279.1 1452.11 1284.03 1458.03 1288.97 1465.92C1293.9 1473.81 1297.85 1481.7 1299.82 1489.59C1300.81 1497.49 1298.84 1501.43 1292.92 1503.4C1284.03 1504.39 1276.14 1503.4 1269.23 1500.45C1261.33 1497.49 1255.41 1492.55 1250.48 1486.63C1245.54 1480.72 1241.59 1473.81 1239.62 1464.93C1237.65 1456.05 1237.65 1448.16 1238.63 1438.3C1239.62 1433.36 1241.59 1428.43 1243.57 1424.49C1245.54 1420.54 1247.52 1418.57 1249.49 1418.57C1253.44 1418.57 1255.41 1421.53 1254.42 1428.43C1253.44 1435.34 1253.44 1442.24 1253.44 1449.15C1254.42 1456.05 1255.41 1461.97 1258.37 1466.9C1260.35 1471.84 1264.29 1476.77 1268.24 1480.72C1272.19 1484.66 1277.12 1486.63 1283.05 1488.61C1284.03 1483.68 1282.06 1476.77 1278.11 1468.88C1274.16 1460.99 1268.24 1454.08 1260.35 1446.19C1259.36 1445.2 1258.37 1444.22 1258.37 1443.23C1258.37 1441.26 1258.37 1440.27 1259.36 1438.3C1260.35 1436.32 1261.33 1435.34 1262.32 1434.35C1263.31 1433.36 1264.29 1432.38 1265.28 1432.38C1288.97 1434.35 1313.64 1436.32 1339.3 1436.32C1362.99 1436.32 1389.64 1432.38 1416.29 1424.49Z" fill="#860076"/>
<path d="M1620.59 1429.42C1616.64 1436.32 1612.69 1442.24 1607.76 1448.16C1602.82 1454.08 1597.89 1460 1592.95 1463.95C1588.02 1468.88 1583.08 1471.84 1578.15 1474.8C1573.21 1477.76 1569.26 1478.74 1565.32 1478.74C1559.4 1478.74 1554.46 1477.76 1550.51 1474.8C1546.56 1472.82 1543.6 1469.86 1541.63 1465.92C1539.66 1461.97 1538.67 1458.03 1538.67 1453.09C1538.67 1448.16 1538.67 1444.22 1539.66 1440.27C1531.76 1448.16 1522.88 1457.04 1513.01 1465.92C1503.14 1474.8 1492.28 1482.69 1481.43 1489.59C1470.57 1495.51 1459.71 1500.45 1448.86 1501.43C1438 1503.4 1428.13 1500.45 1418.26 1493.54C1413.33 1489.59 1409.38 1484.66 1407.4 1477.76C1405.43 1470.85 1405.43 1463.95 1406.42 1456.05C1407.4 1448.16 1409.38 1440.27 1413.33 1433.36C1417.27 1425.47 1421.22 1418.57 1426.16 1412.65C1430.1 1409.69 1433.06 1407.72 1437.01 1407.72C1440.96 1407.72 1440.96 1409.69 1438.99 1412.65C1435.04 1417.58 1432.08 1423.5 1428.13 1431.39C1425.17 1439.28 1422.21 1446.19 1421.22 1454.08C1420.23 1461.97 1421.22 1467.89 1423.19 1473.81C1426.16 1479.73 1431.09 1483.68 1438.99 1485.65C1447.87 1487.62 1456.75 1486.63 1465.63 1481.7C1475.5 1476.77 1484.39 1470.85 1493.27 1463.95C1502.15 1456.05 1511.03 1449.15 1519.92 1441.26C1527.81 1433.36 1535.71 1427.45 1542.62 1423.5C1544.59 1423.5 1546.56 1424.49 1548.54 1425.47C1551.5 1426.46 1551.5 1429.42 1550.51 1431.39C1549.53 1435.34 1548.54 1440.27 1548.54 1444.22C1548.54 1448.16 1549.53 1452.11 1551.5 1455.07C1553.47 1458.03 1555.45 1460 1558.41 1460.99C1561.37 1461.97 1566.3 1461.97 1571.24 1460.99C1574.2 1460.99 1578.15 1459.01 1581.11 1457.04C1584.07 1454.08 1588.02 1451.12 1590.98 1448.16C1593.94 1444.22 1596.9 1441.26 1599.86 1437.31C1602.82 1433.36 1604.8 1430.4 1606.77 1426.46C1608.74 1424.49 1611.7 1423.5 1614.66 1423.5C1621.57 1425.47 1622.56 1426.46 1620.59 1429.42Z" fill="#860076"/>
<path d="M1807.12 1424.49C1810.08 1422.51 1811.07 1423.5 1811.07 1426.46C1811.07 1429.42 1809.09 1432.38 1805.15 1434.35C1783.43 1449.15 1761.72 1460.99 1740.01 1470.85C1718.29 1480.72 1698.55 1487.62 1679.8 1492.55C1661.05 1497.49 1645.26 1500.45 1630.45 1500.45C1615.65 1500.45 1605.78 1497.49 1597.89 1492.55C1596.9 1491.57 1595.91 1491.57 1595.91 1490.58C1594.92 1488.61 1595.91 1485.65 1597.89 1482.69C1602.82 1477.76 1608.74 1472.82 1614.66 1468.88C1620.59 1464.93 1627.49 1460 1633.42 1456.05C1640.32 1452.11 1646.25 1448.16 1652.17 1444.22C1658.09 1440.27 1663.02 1436.32 1667.96 1432.38C1670.92 1430.41 1672.89 1428.43 1672.89 1426.46C1672.89 1424.49 1671.91 1423.5 1668.95 1422.51C1666.97 1421.53 1663.02 1420.54 1659.08 1420.54C1655.13 1419.55 1651.18 1419.55 1646.25 1419.55C1644.27 1419.55 1642.3 1418.57 1641.31 1417.58C1640.32 1416.59 1638.35 1414.62 1638.35 1413.63C1637.36 1412.65 1637.36 1410.68 1638.35 1409.69C1638.35 1408.7 1640.32 1407.72 1643.29 1407.72C1647.23 1407.72 1652.17 1406.73 1658.09 1406.73C1664.01 1406.73 1669.93 1406.73 1675.85 1407.72C1681.78 1408.7 1686.71 1409.69 1690.66 1411.66C1694.61 1413.64 1697.57 1415.61 1697.57 1419.55C1697.57 1422.51 1694.61 1427.45 1687.7 1432.38C1681.78 1438.3 1672.89 1444.22 1662.04 1453.09C1653.15 1460 1646.25 1464.93 1640.32 1467.89C1634.4 1471.84 1628.48 1475.78 1621.57 1481.7C1625.52 1483.68 1632.43 1484.66 1642.3 1483.68C1652.17 1482.69 1662.04 1480.72 1673.88 1476.77C1685.72 1473.81 1698.55 1469.86 1711.39 1464.93C1724.22 1460 1737.05 1455.07 1748.89 1450.13C1760.73 1445.2 1771.59 1440.27 1781.46 1435.34C1794.29 1431.39 1801.2 1427.45 1807.12 1424.49Z" fill="#860076"/>
<path d="M1892 1414.62C1892.99 1415.61 1892.99 1417.58 1892 1418.57C1891.01 1419.55 1890.03 1421.53 1889.04 1422.51C1887.06 1423.5 1886.08 1424.49 1884.1 1424.49C1882.13 1424.49 1881.14 1424.49 1880.16 1423.5C1875.22 1419.55 1870.29 1417.58 1863.38 1415.61C1857.46 1414.62 1849.56 1414.62 1840.68 1416.6C1831.8 1418.57 1823.9 1422.51 1816 1427.45C1808.11 1432.38 1802.19 1438.3 1796.26 1444.22C1791.33 1450.14 1787.38 1455.07 1785.41 1460C1783.43 1464.93 1784.42 1467.89 1787.38 1468.88C1792.32 1470.85 1797.25 1470.85 1804.16 1469.87C1810.08 1468.88 1816.99 1467.89 1822.91 1464.93C1828.83 1462.96 1834.76 1460 1839.69 1458.03C1844.63 1455.07 1847.59 1453.09 1849.56 1450.14C1853.51 1445.2 1857.46 1443.23 1860.42 1443.23C1863.38 1443.23 1865.35 1444.22 1866.34 1446.19C1867.33 1451.12 1867.33 1455.07 1868.31 1460C1868.31 1464.93 1869.3 1468.88 1869.3 1471.84C1869.3 1473.81 1868.31 1475.78 1865.35 1477.76C1862.39 1479.73 1860.42 1479.73 1857.46 1476.77C1855.48 1474.8 1854.5 1472.82 1854.5 1469.87C1853.51 1466.91 1853.51 1464.93 1853.51 1463.95C1851.53 1465.92 1847.59 1467.89 1842.65 1470.85C1837.72 1473.81 1831.8 1475.78 1824.89 1476.77C1817.98 1478.74 1811.07 1479.73 1804.16 1481.7C1797.25 1482.69 1791.33 1482.69 1785.41 1482.69C1780.47 1481.7 1776.53 1480.72 1773.56 1478.74C1770.6 1476.77 1768.63 1473.81 1768.63 1469.87C1768.63 1463.95 1771.59 1457.04 1775.54 1450.14C1779.49 1443.23 1785.41 1436.32 1791.33 1429.42C1798.24 1422.51 1805.15 1416.6 1814.03 1411.66C1822.91 1406.73 1831.8 1402.78 1841.66 1400.81C1853.51 1398.84 1862.39 1397.85 1870.29 1399.82C1879.17 1401.8 1886.08 1406.73 1892 1414.62Z" fill="#860076"/>
</g>
<defs>
<clipPath id="clip0_34_8">
<rect width="1892" height="1533" fill="white"/>
</clipPath>
</defs>
</svg>
