<svg width="10" height="18" viewBox="0 0 10 18" fill="none" xmlns="http://www.w3.org/2000/svg">
<path d="M8.28758 17.75C8.10084 17.7506 7.91633 17.7094 7.7476 17.6294C7.57888 17.5494 7.43023 17.4325 7.31258 17.2875L1.27508 9.78751C1.09123 9.56384 0.990723 9.28329 0.990723 8.99376C0.990723 8.70423 1.09123 8.42367 1.27508 8.20001L7.52508 0.700009C7.73725 0.444738 8.04214 0.284208 8.37268 0.253733C8.70321 0.223258 9.03231 0.325336 9.28758 0.537509C9.54285 0.749682 9.70338 1.05457 9.73386 1.3851C9.76433 1.71564 9.66225 2.04474 9.45008 2.30001L3.86258 9.00001L9.26258 15.7C9.41543 15.8835 9.51253 16.1069 9.54238 16.3439C9.57223 16.5808 9.53358 16.8213 9.43101 17.037C9.32844 17.2526 9.16624 17.4344 8.96361 17.5608C8.76097 17.6871 8.52637 17.7528 8.28758 17.75Z" fill="#D0D0D0"/>
</svg>
